<svg viewBox="0 0 1200 630" width="1200" height="630" xmlns="http://www.w3.org/2000/svg" role="img" aria-labelledby="cvtitle cvdesc" font-family="'Geist','Inter',system-ui,sans-serif">
  <title id="cvtitle">Capa do artigo sobre Karpenter</title>
  <desc id="cvdesc">Diagrama: pods pendentes provisionados pelo Karpenter em novos nós, com os recursos NodeClass, NodePool e NodeClaim.</desc>

  <defs>
    <radialGradient id="bgGlow" cx="50%" cy="42%" r="70%">
      <stop offset="0%" stop-color="#16202a"/>
      <stop offset="55%" stop-color="#0e0c14"/>
      <stop offset="100%" stop-color="#0b0a10"/>
    </radialGradient>
    <linearGradient id="nodeFill" x1="0" y1="0" x2="0" y2="1">
      <stop offset="0%" stop-color="#211d2b"/>
      <stop offset="100%" stop-color="#16131d"/>
    </linearGradient>
    <linearGradient id="teal" x1="0" y1="0" x2="1" y2="1">
      <stop offset="0%" stop-color="#6fe0d4"/>
      <stop offset="100%" stop-color="#3fb9ac"/>
    </linearGradient>
    <filter id="soft" x="-40%" y="-40%" width="180%" height="180%">
      <feGaussianBlur stdDeviation="12"/>
    </filter>
  </defs>

  <rect width="1200" height="630" fill="url(#bgGlow)"/>
  <g fill="#ffffff" opacity="0.035">
    <circle cx="60" cy="70" r="1.6"/><circle cx="140" cy="70" r="1.6"/><circle cx="220" cy="70" r="1.6"/><circle cx="1060" cy="70" r="1.6"/><circle cx="1140" cy="70" r="1.6"/>
    <circle cx="60" cy="560" r="1.6"/><circle cx="140" cy="560" r="1.6"/><circle cx="1060" cy="560" r="1.6"/><circle cx="1140" cy="560" r="1.6"/>
  </g>

  <text x="186" y="150" fill="#9aa0a8" font-size="20" font-weight="600" text-anchor="middle" letter-spacing="0.3">pods pendentes</text>
  <text x="1014" y="150" fill="#9aa0a8" font-size="20" font-weight="600" text-anchor="middle" letter-spacing="0.3">nós provisionados</text>

  <g stroke="#5bd3c7" stroke-width="3" fill="none" opacity="0.55" stroke-linecap="round">
    <path d="M 300 300 C 388 300, 410 300, 482 300"/>
    <path d="M 718 300 C 792 300, 814 300, 878 300"/>
  </g>
  <g fill="#5bd3c7" opacity="0.85">
    <path d="M 480 293 l 15 7 l -15 7 z"/>
    <path d="M 876 293 l 15 7 l -15 7 z"/>
  </g>

  <g>
    <rect x="92" y="200" width="58" height="58" rx="12" fill="#16131d" stroke="#5bd3c7" stroke-width="2"/>
    <rect x="162" y="200" width="58" height="58" rx="12" fill="#16131d" stroke="#5bd3c7" stroke-width="2"/>
    <rect x="92" y="270" width="58" height="58" rx="12" fill="#16131d" stroke="#5bd3c7" stroke-width="2"/>
    <rect x="162" y="270" width="58" height="58" rx="12" fill="#1e1722" stroke="#f0a66d" stroke-width="2" stroke-dasharray="5 4"/>
    <rect x="127" y="340" width="58" height="58" rx="12" fill="#1e1722" stroke="#f0a66d" stroke-width="2" stroke-dasharray="5 4"/>
    <g fill="#5bd3c7" opacity="0.9">
      <circle cx="121" cy="229" r="8"/><circle cx="191" cy="229" r="8"/><circle cx="121" cy="299" r="8"/>
    </g>
    <g fill="#f0a66d" opacity="0.9">
      <circle cx="191" cy="299" r="8"/><circle cx="156" cy="369" r="8"/>
    </g>
  </g>

  <g>
    <circle cx="600" cy="300" r="112" fill="#5bd3c7" opacity="0.12" filter="url(#soft)"/>
    <polygon points="600,188 697,244 697,356 600,412 503,356 503,244" fill="url(#nodeFill)" stroke="url(#teal)" stroke-width="3.5"/>
    <g transform="translate(600,300)" stroke="#5bd3c7" stroke-width="4" fill="none" stroke-linecap="round">
      <circle r="30" fill="#0e0c14"/>
      <circle r="13" fill="none"/>
      <g opacity="0.95">
        <line x1="0" y1="-30" x2="0" y2="-46"/>
        <line x1="0" y1="30" x2="0" y2="46"/>
        <line x1="-30" y1="0" x2="-46" y2="0"/>
        <line x1="30" y1="0" x2="46" y2="0"/>
        <line x1="-21" y1="-21" x2="-33" y2="-33"/>
        <line x1="21" y1="21" x2="33" y2="33"/>
        <line x1="21" y1="-21" x2="33" y2="-33"/>
        <line x1="-21" y1="21" x2="-33" y2="33"/>
      </g>
    </g>
    <text x="600" y="456" fill="#fffaf5" font-size="26" font-weight="700" text-anchor="middle">Karpenter</text>
    <text x="600" y="483" fill="#7d7280" font-size="16" font-weight="500" text-anchor="middle">observa &amp; provisiona</text>
  </g>

  <g>
    <rect x="908" y="330" width="84" height="78" rx="13" fill="url(#nodeFill)" stroke="#3a3442" stroke-width="2"/>
    <rect x="908" y="330" width="84" height="22" rx="13" fill="#5bd3c7" opacity="0.16"/>
    <circle cx="928" cy="341" r="4.5" fill="#5bd3c7"/>
    <g fill="#5bd3c7" opacity="0.85"><circle cx="934" cy="380" r="8.5"/><circle cx="966" cy="380" r="8.5"/></g>
  </g>
  <g>
    <rect x="1004" y="282" width="84" height="126" rx="13" fill="url(#nodeFill)" stroke="#3a3442" stroke-width="2"/>
    <rect x="1004" y="282" width="84" height="22" rx="13" fill="#5bd3c7" opacity="0.16"/>
    <circle cx="1024" cy="293" r="4.5" fill="#5bd3c7"/>
    <g fill="#5bd3c7" opacity="0.85"><circle cx="1030" cy="332" r="8.5"/><circle cx="1062" cy="332" r="8.5"/><circle cx="1030" cy="364" r="8.5"/></g>
    <g fill="#f0a66d" opacity="0.9"><circle cx="1062" cy="364" r="8.5"/></g>
  </g>
  <g>
    <rect x="1100" y="240" width="84" height="168" rx="13" fill="url(#nodeFill)" stroke="#3a3442" stroke-width="2"/>
    <rect x="1100" y="240" width="84" height="22" rx="13" fill="#5bd3c7" opacity="0.16"/>
    <circle cx="1120" cy="251" r="4.5" fill="#5bd3c7"/>
    <g fill="#5bd3c7" opacity="0.85"><circle cx="1126" cy="290" r="8.5"/><circle cx="1158" cy="290" r="8.5"/><circle cx="1126" cy="322" r="8.5"/><circle cx="1158" cy="322" r="8.5"/></g>
    <g fill="#f0a66d" opacity="0.9"><circle cx="1126" cy="354" r="8.5"/></g>
  </g>
  <g stroke="#5bd3c7" stroke-width="2.5" fill="none" opacity="0.5" stroke-linecap="round" stroke-linejoin="round">
    <path d="M 900 426 L 1184 426"/>
    <path d="M 1174 418 l 12 8 l -12 8"/>
  </g>

  <g transform="translate(0,512)">
    <line x1="312" y1="29" x2="888" y2="29" stroke="#3a3442" stroke-width="2"/>
    <g>
      <rect x="312" y="0" width="184" height="58" rx="12" fill="#16131d" stroke="#5bd3c7" stroke-width="1.6"/>
      <text x="404" y="25" fill="#fffaf5" font-size="21" font-weight="700" text-anchor="middle">NodeClass</text>
      <text x="404" y="45" fill="#7d7280" font-size="14" text-anchor="middle">template da AWS</text>
    </g>
    <g>
      <rect x="508" y="0" width="184" height="58" rx="12" fill="#16131d" stroke="#5bd3c7" stroke-width="1.6"/>
      <text x="600" y="25" fill="#fffaf5" font-size="21" font-weight="700" text-anchor="middle">NodePool</text>
      <text x="600" y="45" fill="#7d7280" font-size="14" text-anchor="middle">políticas &amp; limites</text>
    </g>
    <g>
      <rect x="704" y="0" width="184" height="58" rx="12" fill="#16131d" stroke="#f0a66d" stroke-width="1.6"/>
      <text x="796" y="25" fill="#fffaf5" font-size="21" font-weight="700" text-anchor="middle">NodeClaim</text>
      <text x="796" y="45" fill="#7d7280" font-size="14" text-anchor="middle">pedido de nó</text>
    </g>
    <g fill="#5bd3c7"><path d="M 496 26 l 14 3 l -14 3 z" opacity="0.9"/><path d="M 692 26 l 14 3 l -14 3 z" opacity="0.9"/></g>
  </g>
</svg>
