<svg viewBox="0 0 128 128" width="128" height="128" xmlns="http://www.w3.org/2000/svg" role="img" aria-label="Ícone do artigo sobre Karpenter">
  <defs>
    <linearGradient id="kbg" x1="0" y1="0" x2="1" y2="1">
      <stop offset="0%" stop-color="#211d2b"/>
      <stop offset="100%" stop-color="#141019"/>
    </linearGradient>
    <linearGradient id="kteal" x1="0" y1="0" x2="1" y2="1">
      <stop offset="0%" stop-color="#6fe0d4"/>
      <stop offset="100%" stop-color="#3fb9ac"/>
    </linearGradient>
  </defs>
  <rect x="2" y="2" width="124" height="124" rx="28" fill="url(#kbg)" stroke="#3a3442" stroke-width="2"/>
  <polygon points="64,24 99,44 99,84 64,104 29,84 29,44" fill="none" stroke="url(#kteal)" stroke-width="5" stroke-linejoin="round"/>
  <g transform="translate(64,64)" stroke="#5bd3c7" stroke-width="5.5" fill="none" stroke-linecap="round">
    <circle r="15" fill="#141019"/>
    <circle r="6.5" fill="none"/>
    <line x1="0" y1="-15" x2="0" y2="-25"/>
    <line x1="0" y1="15" x2="0" y2="25"/>
    <line x1="-15" y1="0" x2="-25" y2="0"/>
    <line x1="15" y1="0" x2="25" y2="0"/>
    <line x1="-10.6" y1="-10.6" x2="-17.7" y2="-17.7"/>
    <line x1="10.6" y1="10.6" x2="17.7" y2="17.7"/>
    <line x1="10.6" y1="-10.6" x2="17.7" y2="-17.7"/>
    <line x1="-10.6" y1="10.6" x2="-17.7" y2="17.7"/>
  </g>
</svg>
